<?xml version="1.0" encoding="utf-8"?>
<!-- Generator: Adobe Illustrator 29.5.1, SVG Export Plug-In . SVG Version: 9.03 Build 0)  -->
<svg version="1.0" id="图层_1" xmlns="http://www.w3.org/2000/svg" xmlns:xlink="http://www.w3.org/1999/xlink" x="0px" y="0px"
	 viewBox="0 0 300 300" style="enable-background:new 0 0 300 300;" xml:space="preserve">
<style type="text/css">
	.st0{fill:url(#SVGID_1_);stroke:url(#SVGID_00000109743276353186428170000008828629519970106285_);stroke-miterlimit:10;}
	.st1{fill:#FFFFFF;}
</style>
<linearGradient id="SVGID_1_" gradientUnits="userSpaceOnUse" x1="0" y1="152" x2="300" y2="152" gradientTransform="matrix(1 0 0 -1 0 302)">
	<stop  offset="0" style="stop-color:#141E58"/>
	<stop  offset="1" style="stop-color:#5F4D8D"/>
</linearGradient>
<linearGradient id="SVGID_00000001655342903117035760000012456706305128585896_" gradientUnits="userSpaceOnUse" x1="-28.0434" y1="49.2066" x2="328.0434" y2="254.7934" gradientTransform="matrix(1 0 0 -1 0 302)">
	<stop  offset="0" style="stop-color:#141E58"/>
	<stop  offset="0.2203" style="stop-color:#18215B"/>
	<stop  offset="0.4587" style="stop-color:#252964"/>
	<stop  offset="0.7057" style="stop-color:#3B3674"/>
	<stop  offset="0.9569" style="stop-color:#594989"/>
	<stop  offset="1" style="stop-color:#5F4D8D"/>
</linearGradient>
<rect style="fill:url(#SVGID_1_);stroke:url(#SVGID_00000001655342903117035760000012456706305128585896_);stroke-miterlimit:10;" width="300" height="300"/>
<g transform="translate(0.000000,300.000000) scale(0.100000,-0.100000)">
	<path class="st1" d="M2550.09,944.49c-6.66,77.99-32.34,116.98-151.22,233.96c-115.08,112.22-135.05,142.66-169.29,246.32
		c-28.53,86.55-27.58,91.3,20.92,94.15c53.26,2.85,150.27,51.36,186.41,92.25c40.89,46.6,53.26,94.15,38.99,147.41
		c-9.51,36.14-31.38,62.77-136.95,166.43l-125.54,123.64l-68.48,138.85c-78.94,158.83-135.05,229.2-237.76,296.73
		c-141.71,93.2-295.78,127.44-454.6,100.81c-67.52-11.41-164.53-47.55-229.2-85.59c-78.94-47.55-189.26-162.63-249.17-261.54
		c-93.2-155.02-118.88-188.31-216.84-290.07c-97.96-100.81-126.49-145.51-126.49-198.77c0-33.29,27.58-92.25,53.26-115.08
		c55.16-48.5,157.87-64.67,194.96-31.38c9.51,8.56,19.97,14.27,22.82,11.41c8.56-8.56-34.24-145.51-59.92-188.31
		c-13.31-23.78-70.38-90.35-125.54-148.36c-118.88-124.59-147.41-173.09-147.41-255.83c0-72.28,22.83-112.22,77.99-138.85
		c34.24-17.12,40.89-23.78,40.89-47.55c0-76.08,79.89-160.73,152.17-160.73c29.48,0,40.9,21.87,15.22,31.39
		c-19.97,7.61-45.65,60.87-41.85,87.5c2.85,19.97,6.66,18.07,58.97-29.48s56.11-54.21,47.55-77.03
		c-17.12-49.45-70.38-72.28-129.34-57.06c-34.24,8.56-34.24-5.71-1.9-36.14c35.19-32.34,89.4-46.6,134.1-34.24
		c19.02,5.71,37.09,7.61,39.94,4.76s-10.46-19.97-30.43-38.04c-40.89-38.04-38.99-51.36,8.56-51.36
		c117.93,0,192.11,128.39,151.22,262.49c-7.61,24.73,16.17,40.89,148.36,101.76l89.4,41.85l0.95-100.81
		c0-101.76,13.31-167.38,52.31-272.95c10.46-28.53,24.73-51.36,32.34-51.36c6.66,0,41.85,37.09,77.99,82.74
		c36.14,46.6,126.49,149.31,200.67,230.15c74.18,79.89,135.05,152.17,135.05,158.83c0,17.12,5.71,17.12,38.99-2.85
		c50.41-29.48,33.29-70.38-72.28-174.04c-107.47-104.62-138.85-181.65-105.57-260.59c13.31-32.34,50.41-65.62,63.72-58.01
		c3.8,2.85,1.9,19.02-2.85,37.09c-5.71,18.07-6.66,47.55-2.85,68.48l7.61,37.09l11.41-42.8c21.87-82.74,67.52-125.54,135.05-125.54
		c44.7,0,61.82,17.12,29.48,29.48c-34.24,13.31-64.67,55.16-64.67,90.35c0,43.75,29.48,84.64,92.25,127.44
		c72.28,50.41,131.24,111.27,151.22,158.82c23.78,57.06,19.97,139.8-9.51,216.84c-25.68,69.43-43.75,182.6-43.75,280.56
		c0,54.21,2.85,62.77,27.58,82.74c49.45,41.85,56.11,149.31,11.41,177.85c-11.41,6.66-15.22,18.07-12.36,32.34
		c2.85,18.07,10.46,22.82,35.19,22.82c34.24,0,42.8-11.41,42.8-61.82c0-41.85,42.8-187.36,73.23-252.03
		c18.07-38.04,57.06-82.74,136.95-161.68c121.73-118.88,141.71-151.22,141.71-230.15c0-69.43-14.27-88.45-22.82-30.43
		c-10.46,76.08-40.89,124.59-149.31,233.01c-77.99,78.94-109.37,116.98-132.2,165.48c-49.45,103.66-65.62,52.31-23.78-78.94
		c14.27-43.75,45.65-109.37,77.04-159.78c29.48-46.6,66.57-111.27,81.79-144.56c25.68-52.31,28.53-67.52,25.68-128.39
		c-2.85-52.31-8.56-76.08-25.68-99.86c-29.48-40.89-40.9-38.99-24.73,4.76c29.48,83.69,11.41,209.23-41.85,294.83
		c-29.48,47.55-55.16,55.16-45.65,15.22c23.78-108.42,25.68-129.34,15.22-181.65c-16.17-78.94-53.26-141.71-99.86-169.29
		c-21.87-12.36-41.85-22.83-45.65-22.83c-2.85,0,2.85,19.97,13.31,43.75c20.92,46.6,18.07,80.84-4.76,61.82
		c-7.61-6.66-16.17-22.83-19.97-37.09c-2.85-14.27-18.07-41.85-34.24-60.87c-15.22-19.02-27.58-37.09-27.58-39.94
		c0-14.27,80.84-3.8,116.03,14.27c71.33,36.14,113.18,97.96,135.05,201.62l13.31,58.96l0.95-74.18
		c0.95-84.64-11.41-122.68-54.21-162.63c-33.29-30.43-31.38-43.75,3.8-43.75c58.97,0,131.24,61.82,155.02,132.2
		c24.73,76.08,0.95,185.45-62.77,285.31c-112.22,174.99-115.08,193.06-11.41,91.3c126.49-124.59,155.02-195.92,113.17-287.22
		c-20.92-46.6-12.36-57.06,27.58-37.09C2524.41,794.22,2556.74,863.65,2550.09,944.49z M682.23,913.1
		c-1.9-1.9-10.46,12.36-19.02,32.34c-31.38,76.08,3.8,148.36,128.39,268.2c50.41,47.55,92.25,85.59,94.15,83.69
		c1.9-0.95-34.24-63.72-78.94-136.95c-45.65-74.18-91.3-158.83-101.76-189.26C694.59,941.64,684.13,915.01,682.23,913.1z
		 M892.41,588.8h-38.04l31.39,16.17c17.12,8.56,39.94,27.58,51.36,42.8c15.22,21.87,21.87,25.68,27.58,15.22
		c4.76-6.66,8.56-19.97,8.56-28.53C973.25,609.72,935.21,588.8,892.41,588.8z M1002.73,527.93l-30.43-18.07l19.02,37.09
		c39.94,73.23,16.17,143.61-74.18,221.59c-32.34,28.53-64.67,62.77-72.28,77.99c-20.92,39.94-17.12,109.37,10.46,184.5
		c13.31,37.09,26.63,77.04,29.48,90.35c3.8,23.78,3.8,23.78-19.97-3.8c-12.36-15.22-32.34-51.36-42.8-79.89
		c-23.78-59.92-43.75-213.03-36.14-275.8l4.76-44.7l-26.63,30.43c-26.63,30.43-47.55,82.74-47.55,123.64
		c0,49.45,41.85,145.51,116.98,266.29c92.25,147.41,124.59,215.89,144.56,301.48c27.58,116.03,9.51,137.9-27.58,33.29
		c-30.43-87.5-69.43-139.8-162.63-218.74c-121.73-102.71-165.48-171.19-167.38-264.39c0-33.29-1.9-38.99-8.56-24.73
		c-15.22,36.14-9.51,95.1,14.27,143.61c13.31,26.63,65.62,91.3,121.73,149.31c110.32,113.17,150.27,176.89,176.89,283.41
		l17.12,68.48l44.7,11.41c23.78,6.66,46.6,14.27,50.41,17.12c14.27,14.27,14.27-8.56,3.8-118.88
		c-16.17-156.92-33.29-224.45-82.74-326.21C889.56,1051,884.81,955.9,942.82,879.82c14.27-18.07,43.75-55.16,64.67-83.69
		c21.87-27.58,43.75-64.67,50.41-82.74C1082.62,638.25,1059.79,562.17,1002.73,527.93z M1065.5,1397.19
		c8.56,22.83,19.97-24.73,20.92-85.59c0.95-78.94-21.87-154.07-83.69-270.1l-56.11-103.66l-5.71,37.09
		c-9.51,52.31,6.66,115.08,51.36,203.52c20.92,40.9,44.7,103.66,53.26,139.8C1054.09,1353.44,1062.65,1389.58,1065.5,1397.19z
		 M1250.95,883.62c-65.62-31.38-120.78-55.16-123.64-52.31c-2.85,2.85,14.27,46.6,38.99,97.96c44.7,95.1,60.87,148.36,47.55,156.92
		c-6.66,4.76-93.2-169.29-130.29-262.49l-15.22-37.09l-46.6,54.21c-55.16,62.77-56.11,47.55,22.82,200.67
		c35.19,68.48,57.06,123.64,63.72,163.58l9.51,58.96l26.63-36.14c14.27-19.97,44.7-52.31,67.52-72.28
		c22.82-19.02,74.18-51.36,113.17-70.38s74.18-38.99,77.99-44.7c3.8-4.76,7.61-29.48,7.61-54.21c0-40.9-1.9-45.65-20.92-45.65
		C1378.4,940.68,1315.63,915.01,1250.95,883.62z M1401.22,908.35c0-1.9-7.61-9.51-16.17-16.17c-15.22-12.36-16.17-11.41-3.8,3.8
		C1393.61,911.2,1401.22,915.96,1401.22,908.35z M1477.3,577.38c-41.85-50.41-54.21-59.92-60.87-48.5
		c-7.61,14.27-34.24,104.62-34.24,119.83c0,3.8,34.24,6.66,77.04,6.66c41.85,0,75.13-2.85,73.23-7.61
		C1531.51,643.96,1505.84,612.57,1477.3,577.38z M1736.94,863.65c-41.85-42.8-52.31-48.5-104.62-56.11
		c-61.82-8.56-97.96-22.82-97.96-39.94c0-5.71,10.46-7.61,26.63-3.8c14.27,2.85,40.9,8.56,58.96,12.36l32.34,5.71l-38.99-45.65
		l-39.94-46.6l-97.96,2.85c-53.26,0.95-100.81,4.76-104.62,6.66c-4.76,2.85-7.61,36.14-7.61,73.23c0,66.57,0.95,68.48,27.58,80.84
		c39.94,17.12,60.87,68.48,56.11,131.24l-4.76,51.36h36.14c42.8,0,140.76,30.43,198.77,61.82c53.26,28.53,50.41,28.53,43.75-0.95
		c-9.51-38.04,11.41-124.59,38.99-156.92l24.73-29.48L1736.94,863.65z M1860.58,966.36c-22.83,9.51-37.09,10.46-50.41,2.85
		c-9.51-4.76-19.97-9.51-21.87-9.51c-12.36,0-35.19,81.79-35.19,124.59c0,46.6,1.9,49.45,59.92,103.66
		c32.34,31.39,58.96,57.06,58.96,57.06s-0.95-37.09-2.85-82.74c-1.9-47.55,2.85-111.27,9.51-146.46l13.31-62.77L1860.58,966.36z
		 M1894.81,1419.06c-11.41-106.52-12.36-108.42-49.45-151.22c-47.55-54.21-138.85-119.83-222.55-157.87
		c-54.21-25.68-76.08-30.43-136-31.39c-64.67,0-77.99,3.8-146.46,38.04c-87.5,43.75-164.53,114.13-193.06,175.94
		c-19.02,41.85-69.43,236.81-69.43,269.15c2.35,34.53,5.61,67.72,9.51,102.71c28.11,54.8,59.24,107.59,91.3,161.68
		c16.13,32.25,25.49,31.56,19.37,1.97c0.34-0.97,0.61-1.97,0.5-3.03c-0.82-8.33-1.43-16.69-2.8-24.95
		c-1.07-6.47-2.93-12.8-4.51-19.16c-7.27-18.71-14.86-36.57-23.02-56.58c-15.22-38.04-12.36-51.36,12.36-51.36
		c1.55,0,2.64-0.19,3.49-0.48c0.04,0.01,0.07,0.03,0.11,0.03c4.15,0.68,8.26,1.19,12.33,1.86c2.24,1.06,4.66,1.91,7.3,2.5
		c7.01,1.57,14.06,2.67,21.13,3.42c6.71,4.33,20.28,11.19,42.19,22.15c40.89,19.97,71.33,44.7,101.76,82.74
		c37.09,45.65,41.85,49.45,36.14,24.73c-3.8-15.22-14.27-48.5-23.78-74.18c-19.02-51.36-18.07-59.92,5.71-46.6
		c58.97,33.29,155.02,168.34,157.87,221.59c0,7.61,10.46-15.22,23.78-52.31c13.31-36.14,25.68-73.23,28.53-80.84
		c6.66-18.07,59.92-60.87,66.57-54.21c1.95,1.95,1.19,7.96-1.3,15.2c-45.01,55.58-63.21,128.44-76.21,197.24
		c-8.27,40.35,3.04,40.21,37.56,27.23c19.02-8.56,37.09-21.87,39.94-31.39c2.85-8.56,13.31-37.09,23.78-62.77
		c6.44-15.8,11.41-30.12,13.86-39.28c33.92-70.34,77.85-146.64,150.76-181.56c42.49-15.18,53.32-19.84,53.17-68.28
		C1905.28,1550.31,1900.52,1478.03,1894.81,1419.06z M1321.33,2200.82c-29.48,26.63-53.26,52.31-53.26,58.96
		c0,5.71,24.73,16.17,55.16,21.87c108.42,20.92,93.2,9.51,148.36,107.47c14.27,24.73,32.34,44.7,39.94,44.7
		c8.56,0,26.63-25.68,43.75-61.82c15.22-34.24,35.19-65.62,44.7-70.38c8.56-4.76,40.89-11.41,73.23-15.22
		c92.25-10.46,94.15-16.17,23.78-79.89l-60.87-56.11l13.31-72.28c9.51-46.6,11.41-75.13,5.71-78.94
		c-5.71-2.85-40.9,10.46-79.89,31.38l-69.43,37.09l-71.33-38.04c-90.35-48.5-97.96-42.8-76.08,54.21l16.17,69.43L1321.33,2200.82z
		 M1822.54,1844.18c2.85-2.85,21.87-28.53,43.75-57.06c32.34-42.8,38.99-58.97,38.99-94.15c0-41.85,0-42.8-15.22-21.87
		C1868.19,1702.47,1807.32,1858.45,1822.54,1844.18z M2095.49,903.59c0-77.04-46.6-144.56-143.61-211.13
		c-98.91-66.57-136.95-134.1-115.08-204.48c12.36-40.89,0-34.24-21.87,11.41c-13.31,27.58-15.22,48.5-10.46,99.86
		c4.76,40.89,2.85,65.62-2.85,65.62c-12.36,0-58.01-56.11-73.23-90.35c-6.66-15.22-12.36-21.87-13.31-13.31
		c-0.95,38.04,36.14,94.15,114.13,174.99c100.81,104.62,115.08,137.9,95.1,221.59c-21.87,94.15-21.87,224.45-0.95,412.75
		c11.41,96.06,19.97,208.28,19.97,248.22s1.9,73.23,5.71,73.23c2.85,0,20.92-10.46,39.94-23.78c19.02-13.31,40.89-23.78,48.5-23.78
		c10.46,0,11.41-10.46,6.66-49.45c-22.83-187.36-26.63-240.62-20.92-316.7c3.8-60.87,1.9-80.84-4.76-68.48
		c-14.27,24.73-37.09,138.85-37.09,190.21c0,35.19-3.8,44.7-15.22,44.7c-14.27,0-15.22-9.51-10.46-82.74
		c7.61-100.81,25.68-164.53,73.23-259.64C2067.91,1025.33,2095.49,942.59,2095.49,903.59z M2085.97,1520.82
		c5.71-7.61,9.51-23.78,9.51-34.24c0-11.41-8.56-30.43-18.07-42.8l-19.02-22.83l5.71,42.8
		C2070.76,1526.53,2075.51,1537.94,2085.97,1520.82z M2195.35,1599.76l-6.66,35.19h35.19c33.29,0,34.24-0.95,28.53-28.53
		c-5.71-24.73-3.8-28.53,13.31-28.53c25.68,0,43.75,40.9,29.48,67.52c-11.41,20.92-12.36,20.92-137.9,21.87
		c-85.59,0.95-99.86,3.8-138.85,26.63c-63.72,38.04-140.76,126.49-183.55,211.13c-19.97,39.94-40.9,71.33-47.55,69.43
		c-16.17-5.71-18.07-63.72-2.85-129.34c5.29-21.84,8.28-41.35,8.33-51.21c3.05-7.83,5.78-15.77,9.67-23.25
		c4.69-9.04,9.79-17.9,13.05-27.6c0.05-0.14,0.01-0.24,0.05-0.38c11.79-15.87,23.12-36.85,23.12-46.87
		c0-9.51-27.58,15.22-48.5,45.65c-7.38,10.19-12.01,16.99-13.65,21.05c-37.33,67.69-75.63,137.76-83.02,215.68
		c-2.65,25.46-3.45,52.49-6.27,77.68c-13.07,71.65-12.34,84.4,46.82,131.63c87.5,81.79,77.04,116.98-42.8,135.05l-75.13,11.41
		l-31.38,63.72c-51.36,106.52-91.3,106.52-152.17,0.95l-37.09-64.67l-65.62-11.41c-115.08-20.92-130.29-61.82-50.41-136l49.45-45.65
		l-13.31-66.57c-11.41-60.87-10.46-70.38,3.8-91.3c21.87-34.24,54.21-31.38,128.39,8.56c77.03,41.85,89.4,35.19,73.23-36.14
		c-12.36-52.31-58.97-153.12-77.04-168.34c-7.61-6.66-5.71,15.22,4.76,66.57c9.51,40.9,14.27,77.03,11.41,79.89
		c-13.31,13.31-30.43,2.85-50.41-29.48c-11.41-19.97-36.14-57.06-54.21-81.79c-26.52-35.28-53.45-62.32-88.45-85.59
		c-38.99-22.82-65.62-32.34-65.62-21.87c12.59,39.9,23.44,82.25,32.34,122.69c15.22,68.48,17.12,127.44,6.66,135.05
		c-15.22,8.56-23.78-3.8-91.3-129.34c-62.77-117.93-114.13-172.14-176.89-189.26c-36.14-9.51-47.55-8.56-89.4,8.56
		c-26.63,11.41-53.26,19.97-59.92,19.97c-17.12,0-13.31-38.99,5.71-53.26c14.27-11.41,13.31-12.36-12.36-12.36
		c-73.23-0.95-147.41,62.77-147.41,125.54c0,56.11,15.22,79.89,125.54,195.92c85.59,88.45,120.78,135.05,174.04,224.45
		c51.36,87.5,86.55,134.1,152.17,200.67c87.5,88.45,134.1,119.83,230.15,155.97c113.17,42.8,232.06,49.45,347.13,19.97
		c191.16-49.45,320.5-162.63,412.76-360.45c56.11-120.78,117.93-211.13,177.85-259.64c116.98-95.1,158.82-149.31,158.82-204.48
		c0-38.04-33.29-84.64-83.69-116.03c-52.31-33.29-72.28-39.94-119.83-41.85C2202.95,1555.06,2203.91,1555.06,2195.35,1599.76z"/>
</g>
</svg>
