<?xml version="1.0" encoding="utf-8"?>
<!-- Generator: Adobe Illustrator 29.5.1, SVG Export Plug-In . SVG Version: 9.03 Build 0)  -->
<svg version="1.0" id="图层_1" xmlns="http://www.w3.org/2000/svg" xmlns:xlink="http://www.w3.org/1999/xlink" x="0px" y="0px"
	 viewBox="0 0 2560 1440" style="enable-background:new 0 0 2560 1440;" xml:space="preserve">
<style type="text/css">
	.st0{fill:url(#SVGID_1_);stroke:url(#SVGID_00000016776097655031950160000001578983193282005148_);stroke-miterlimit:10;}
	.st1{fill:#FFFFFF;}
</style>
<linearGradient id="SVGID_1_" gradientUnits="userSpaceOnUse" x1="0.5" y1="11.75" x2="2560" y2="11.75" gradientTransform="matrix(1 0 0 -1 0 732)">
	<stop  offset="0" style="stop-color:#141E58"/>
	<stop  offset="1" style="stop-color:#5F4D8D"/>
</linearGradient>
<linearGradient id="SVGID_00000061446729302618799050000001329978000112165304_" gradientUnits="userSpaceOnUse" x1="8.1851" y1="-722.6769" x2="2552.3149" y2="746.1769" gradientTransform="matrix(1 0 0 -1 0 732)">
	<stop  offset="0" style="stop-color:#141E58"/>
	<stop  offset="0.2203" style="stop-color:#18215B"/>
	<stop  offset="0.4587" style="stop-color:#252964"/>
	<stop  offset="0.7057" style="stop-color:#3B3674"/>
	<stop  offset="0.9569" style="stop-color:#594989"/>
	<stop  offset="1" style="stop-color:#5F4D8D"/>
</linearGradient>
<path style="fill:url(#SVGID_1_);stroke:url(#SVGID_00000061446729302618799050000001329978000112165304_);stroke-miterlimit:10;" d="
	M0.5,0.5H2560V1440H0.5V0.5z"/>
<g transform="translate(0.000000,300.000000) scale(0.100000,-0.100000)">
	<path class="st1" d="M14470.86-5137.48c-11.24,131.61-54.58,197.41-255.2,394.83c-194.21,189.38-227.91,240.75-285.69,415.68
		c-48.15,146.06-46.54,154.08,35.3,158.89c89.88,4.81,253.59,86.67,314.58,155.68c69,78.64,89.88,158.89,65.8,248.77
		c-16.05,60.99-52.96,105.93-231.11,280.86l-211.86,208.65l-115.57,234.32c-133.22,268.04-227.91,386.79-401.24,500.76
		c-239.15,157.28-499.15,215.06-767.17,170.12c-113.95-19.26-277.66-80.24-386.79-144.44c-133.22-80.24-319.39-274.45-420.49-441.37
		c-157.28-261.61-200.62-317.79-365.93-489.52c-165.32-170.12-213.46-245.56-213.46-335.44c0-56.18,46.54-155.68,89.88-194.21
		c93.09-81.85,266.42-109.14,329.01-52.96c16.05,14.45,33.7,24.08,38.51,19.26c14.45-14.45-57.78-245.56-101.12-317.79
		c-22.46-40.13-118.77-152.47-211.86-250.37c-200.62-210.26-248.77-292.1-248.77-431.73c0-121.98,38.53-189.38,131.61-234.32
		c57.78-28.89,69.01-40.13,69.01-80.24c0-128.39,134.82-271.24,256.8-271.24c49.75,0,69.02,36.91,25.69,52.97
		c-33.7,12.84-77.04,102.72-70.62,147.66c4.81,33.7,11.24,30.49,99.52-49.75s94.69-91.48,80.24-129.99
		c-28.89-83.45-118.77-121.98-218.27-96.29c-57.78,14.45-57.78-9.64-3.21-60.99c59.39-54.58,150.87-78.64,226.3-57.78
		c32.1,9.64,62.59,12.84,67.4,8.03c4.81-4.81-17.65-33.7-51.35-64.2c-69.01-64.2-65.8-86.67,14.45-86.67
		c199.02,0,324.2,216.67,255.2,442.97c-12.84,41.73,27.29,69.01,250.37,171.73l150.87,70.62l1.6-170.12
		c0-171.73,22.46-282.47,88.28-460.62c17.65-48.15,41.73-86.67,54.58-86.67c11.24,0,70.62,62.59,131.61,139.63
		c60.99,78.64,213.46,251.97,338.65,388.4c125.18,134.82,227.91,256.8,227.91,268.04c0,28.89,9.64,28.89,65.8-4.81
		c85.07-49.75,56.18-118.77-121.98-293.71c-181.36-176.55-234.32-306.55-178.16-439.77c22.46-54.58,85.07-110.74,107.53-97.9
		c6.41,4.81,3.21,32.1-4.81,62.59c-9.64,30.49-11.24,80.24-4.81,115.56l12.84,62.59l19.26-72.23
		c36.91-139.63,113.95-211.86,227.91-211.86c75.44,0,104.33,28.89,49.75,49.75c-57.78,22.46-109.14,93.09-109.14,152.47
		c0,73.83,49.75,142.84,155.68,215.06c121.98,85.07,221.48,187.78,255.2,268.02c40.13,96.29,33.7,235.92-16.05,365.93
		c-43.34,117.17-73.83,308.15-73.83,473.47c0,91.48,4.81,105.93,46.54,139.63c83.45,70.63,94.69,251.97,19.25,300.14
		c-19.25,11.24-25.69,30.49-20.86,54.58c4.81,30.49,17.65,38.51,59.39,38.51c57.78,0,72.23-19.26,72.23-104.33
		c0-70.63,72.23-316.18,123.58-425.32c30.5-64.2,96.29-139.63,231.11-272.85c205.43-200.62,239.15-255.2,239.15-388.4
		c0-117.17-24.08-149.27-38.51-51.35c-17.65,128.39-69,210.26-251.97,393.22c-131.61,133.22-184.57,197.41-223.1,279.26
		c-83.45,174.93-110.74,88.28-40.13-133.22c24.08-73.83,77.04-184.57,130.01-269.64c49.75-78.64,112.34-187.78,138.03-243.96
		c43.34-88.28,48.15-113.95,43.34-216.67c-4.81-88.28-14.45-128.39-43.34-168.52c-49.75-69.01-69.02-65.8-41.73,8.03
		c49.75,141.23,19.26,353.09-70.62,497.55c-49.75,80.24-93.09,93.09-77.04,25.69c40.13-182.97,43.34-218.27,25.68-306.55
		c-27.29-133.22-89.88-239.15-168.52-285.69c-36.91-20.86-70.62-38.53-77.04-38.53c-4.81,0,4.81,33.7,22.46,73.83
		c35.3,78.64,30.49,136.42-8.03,104.33c-12.84-11.24-27.29-38.53-33.7-62.59c-4.81-24.08-30.49-70.62-57.78-102.72
		c-25.69-32.1-46.54-62.59-46.54-67.4c0-24.08,136.42-6.41,195.81,24.08c120.38,60.99,191,165.32,227.91,340.25l22.46,99.5
		l1.6-125.18c1.6-142.84-19.26-207.03-91.48-274.45c-56.18-51.35-52.96-73.83,6.41-73.83c99.52,0,221.48,104.33,261.61,223.1
		c41.74,128.39,1.6,312.96-105.93,481.48c-189.38,295.31-194.21,325.8-19.26,154.08c213.46-210.26,261.61-330.63,190.98-484.71
		c-35.3-78.64-20.86-96.29,46.54-62.59C14427.53-5391.07,14482.09-5273.91,14470.86-5137.48z M11318.71-5190.46
		c-3.21-3.21-17.65,20.86-32.1,54.58c-52.96,128.39,6.41,250.37,216.67,452.61c85.07,80.24,155.68,144.44,158.89,141.23
		c3.21-1.6-57.78-107.53-133.22-231.11c-77.04-125.18-154.08-268.04-171.73-319.39
		C11339.56-5142.29,11321.91-5187.23,11318.71-5190.46z M11673.4-5737.74h-64.2l52.97,27.29c28.89,14.45,67.4,46.54,86.67,72.23
		c25.68,36.91,36.91,43.34,46.54,25.69c8.03-11.24,14.45-33.7,14.45-48.15C11809.82-5702.43,11745.63-5737.74,11673.4-5737.74z
		 M11859.57-5840.46l-51.35-30.49l32.1,62.59c67.4,123.58,27.29,242.35-125.18,373.95c-54.58,48.15-109.14,105.93-121.98,131.61
		c-35.3,67.4-28.89,184.57,17.65,311.36c22.46,62.59,44.94,130.01,49.75,152.47c6.41,40.13,6.41,40.13-33.7-6.41
		c-20.86-25.69-54.58-86.67-72.23-134.82c-40.13-101.12-73.83-359.5-60.99-465.43l8.03-75.44l-44.94,51.35
		c-44.94,51.35-80.24,139.63-80.24,208.65c0,83.45,70.62,245.56,197.41,449.39c155.68,248.77,210.25,364.33,243.96,508.77
		c46.54,195.81,16.05,232.72-46.54,56.18c-51.35-147.66-117.17-235.92-274.45-369.14c-205.43-173.33-279.26-288.9-282.47-446.18
		c0-56.18-3.21-65.8-14.45-41.73c-25.68,60.99-16.05,160.49,24.08,242.35c22.46,44.94,110.74,154.08,205.43,251.97
		c186.17,190.98,253.59,298.52,298.52,478.28l28.89,115.57l75.43,19.26c40.13,11.24,78.64,24.08,85.07,28.89
		c24.08,24.08,24.08-14.45,6.41-200.62c-27.29-264.81-56.18-378.78-139.63-550.5c-115.57-239.15-123.58-399.64-25.69-528.03
		c24.08-30.49,73.83-93.09,109.14-141.23c36.91-46.54,73.83-109.14,85.07-139.63
		C11994.39-5654.29,11955.87-5782.68,11859.57-5840.46z M11965.5-4373.52c14.45,38.53,33.7-41.73,35.3-144.44
		c1.6-133.22-36.91-260-141.23-455.81l-94.69-174.93l-9.64,62.59c-16.05,88.28,11.24,194.21,86.67,343.46
		c35.3,69.02,75.44,174.93,89.88,235.92C11946.25-4447.35,11960.69-4386.36,11965.5-4373.52z M12278.46-5240.21
		c-110.74-52.96-203.83-93.09-208.65-88.28c-4.81,4.81,24.08,78.64,65.8,165.32c75.44,160.49,102.72,250.37,80.24,264.81
		c-11.24,8.03-157.28-285.69-219.87-442.97l-25.69-62.59l-78.64,91.48c-93.09,105.93-94.69,80.24,38.51,338.65
		c59.39,115.57,96.29,208.65,107.53,276.05l16.05,99.5l44.94-60.99c24.08-33.7,75.44-88.28,113.95-121.98
		c38.51-32.1,125.18-86.67,190.98-118.77c65.8-32.1,125.19-65.8,131.62-75.43c6.41-8.03,12.84-49.75,12.84-91.48
		c0-69.02-3.21-77.04-35.3-77.04C12493.55-5143.91,12387.62-5187.23,12278.46-5240.21z M12532.06-5198.47
		c0-3.21-12.84-16.05-27.29-27.29c-25.69-20.86-27.29-19.26-6.41,6.41C12519.21-5193.66,12532.06-5185.63,12532.06-5198.47z
		 M12660.45-5757.01c-70.62-85.07-91.48-101.12-102.72-81.85c-12.84,24.08-57.78,176.55-57.78,202.22
		c0,6.41,57.78,11.24,130.01,11.24c70.63,0,126.79-4.81,123.58-12.84C12751.93-5644.65,12708.61-5697.62,12660.45-5757.01z
		 M13098.61-5273.91c-70.63-72.23-88.28-81.85-176.55-94.69c-104.33-14.45-165.32-38.51-165.32-67.4c0-9.64,17.65-12.84,44.94-6.41
		c24.08,4.81,69.02,14.45,99.5,20.86l54.58,9.64l-65.8-77.04l-67.4-78.64l-165.32,4.81c-89.88,1.6-170.12,8.03-176.55,11.24
		c-8.03,4.81-12.84,60.99-12.84,123.58c0,112.34,1.6,115.57,46.54,136.42c67.4,28.89,102.72,115.57,94.69,221.48l-8.03,86.67h60.99
		c72.23,0,237.54,51.35,335.44,104.33c89.88,48.15,85.07,48.15,73.83-1.6c-16.05-64.2,19.26-210.26,65.8-264.81l41.73-49.75
		L13098.61-5273.91z M13307.26-5100.57c-38.53,16.05-62.59,17.65-85.07,4.81c-16.05-8.03-33.7-16.05-36.91-16.05
		c-20.86,0-59.39,138.03-59.39,210.26c0,78.64,3.21,83.45,101.12,174.93c54.58,52.97,99.5,96.29,99.5,96.29s-1.6-62.59-4.81-139.63
		c-3.21-80.24,4.81-187.78,16.05-247.16l22.46-105.93L13307.26-5100.57z M13365.03-4336.61c-19.26-179.76-20.86-182.97-83.45-255.2
		c-80.24-91.48-234.32-202.22-375.57-266.42c-91.48-43.34-128.39-51.35-229.51-52.97c-109.14,0-131.61,6.41-247.16,64.2
		c-147.66,73.83-277.66,192.6-325.8,296.91c-32.1,70.62-117.17,399.64-117.17,454.21c3.97,58.27,9.47,114.28,16.05,173.33
		c47.44,92.48,99.97,181.57,154.08,272.85c27.22,54.42,43.02,53.26,32.69,3.32c0.57-1.64,1.03-3.32,0.84-5.11
		c-1.38-14.06-2.41-28.17-4.72-42.11c-1.81-10.92-4.94-21.6-7.61-32.33c-12.27-31.57-25.08-61.71-38.85-95.48
		c-25.68-64.2-20.86-86.67,20.86-86.67c2.62,0,4.46-0.32,5.89-0.81c0.07,0.02,0.12,0.05,0.19,0.05c7,1.15,13.94,2.01,20.81,3.14
		c3.78,1.79,7.86,3.22,12.32,4.22c11.83,2.65,23.73,4.51,35.66,5.77c11.32,7.31,34.22,18.88,71.2,37.38
		c69.01,33.7,120.38,75.43,171.73,139.63c62.59,77.04,70.63,83.45,60.99,41.73c-6.41-25.68-24.08-81.85-40.13-125.18
		c-32.1-86.67-30.49-101.12,9.64-78.64c99.52,56.18,261.61,284.09,266.42,373.95c0,12.84,17.65-25.68,40.13-88.28
		c22.46-60.99,43.34-123.58,48.15-136.42c11.24-30.49,101.12-102.72,112.34-91.48c3.29,3.29,2.01,13.43-2.19,25.65
		c-75.96,93.8-106.67,216.75-128.61,332.86c-13.96,68.09,5.13,67.86,63.39,45.95c32.1-14.45,62.59-36.91,67.4-52.97
		c4.81-14.45,22.46-62.59,40.13-105.93c10.87-26.66,19.26-50.83,23.39-66.29c57.24-118.7,131.38-247.47,254.42-306.4
		c71.71-25.62,89.98-33.48,89.73-115.23C13382.7-4115.11,13374.66-4237.09,13365.03-4336.61z M12397.24-3017.33
		c-49.75,44.94-89.88,88.28-89.88,99.5c0,9.64,41.73,27.29,93.09,36.91c182.97,35.3,157.28,16.05,250.37,181.36
		c24.08,41.73,54.58,75.43,67.4,75.43c14.45,0,44.94-43.34,73.83-104.33c25.69-57.78,59.39-110.74,75.44-118.77
		c14.45-8.03,69-19.26,123.58-25.69c155.68-17.65,158.89-27.29,40.13-134.82l-102.72-94.69l22.46-121.98
		c16.05-78.64,19.25-126.79,9.64-133.22c-9.64-4.81-69.02,17.65-134.82,52.96l-117.17,62.59l-120.38-64.2
		c-152.47-81.85-165.31-72.23-128.39,91.48l27.29,117.17L12397.24-3017.33z M13243.07-3619.18c4.81-4.81,36.91-48.15,73.83-96.29
		c54.58-72.23,65.8-99.52,65.8-158.89c0-70.63,0-72.23-25.68-36.91C13320.11-3858.33,13217.38-3595.1,13243.07-3619.18z
		 M13703.69-5206.5c0-130.01-78.64-243.96-242.35-356.3c-166.92-112.34-231.11-226.3-194.21-345.08c20.86-69.01,0-57.78-36.91,19.26
		c-22.46,46.54-25.69,81.85-17.65,168.52c8.03,69,4.81,110.74-4.81,110.74c-20.86,0-97.9-94.69-123.58-152.47
		c-11.24-25.69-20.86-36.91-22.46-22.46c-1.6,64.2,60.99,158.89,192.6,295.31c170.12,176.55,194.21,232.72,160.49,373.95
		c-36.91,158.89-36.91,378.78-1.6,696.55c19.26,162.11,33.7,351.49,33.7,418.89c0,67.4,3.21,123.58,9.64,123.58
		c4.81,0,35.3-17.65,67.4-40.13c32.1-22.46,69.01-40.13,81.85-40.13c17.65,0,19.26-17.65,11.24-83.45
		c-38.53-316.18-44.94-406.06-35.3-534.46c6.41-102.72,3.21-136.42-8.03-115.57c-24.08,41.73-62.59,234.32-62.59,320.99
		c0,59.39-6.41,75.44-25.69,75.44c-24.08,0-25.69-16.05-17.65-139.63c12.84-170.12,43.34-277.66,123.58-438.16
		C13657.15-5001.06,13703.69-5140.69,13703.69-5206.5z M13687.63-4164.88c9.64-12.84,16.05-40.13,16.05-57.78
		c0-19.26-14.45-51.35-30.49-72.23l-32.1-38.53l9.64,72.23C13661.96-4155.24,13669.97-4135.99,13687.63-4164.88z M13872.21-4031.66
		l-11.24,59.39h59.39c56.18,0,57.78-1.6,48.15-48.15c-9.64-41.73-6.41-48.15,22.46-48.15c43.34,0,73.83,69.02,49.75,113.95
		c-19.25,35.3-20.86,35.3-232.72,36.91c-144.44,1.6-168.52,6.41-234.32,44.94c-107.53,64.2-237.54,213.46-309.75,356.3
		c-33.7,67.4-69.02,120.38-80.24,117.17c-27.29-9.64-30.49-107.53-4.81-218.27c8.93-36.86,13.97-69.78,14.06-86.42
		c5.15-13.21,9.75-26.61,16.32-39.24c7.91-15.26,16.52-30.21,22.02-46.58c0.08-0.24,0.02-0.41,0.08-0.64
		c19.9-26.78,39.02-62.19,39.02-79.1c0-16.05-46.54,25.69-81.85,77.04c-12.45,17.2-20.27,28.67-23.04,35.52
		c-63,114.23-127.63,232.48-140.1,363.98c-4.47,42.97-5.82,88.58-10.58,131.09c-22.06,120.91-20.82,142.43,79.01,222.14
		c147.66,138.03,130.01,197.41-72.23,227.91l-126.79,19.26l-52.96,107.53c-86.67,179.76-154.08,179.76-256.8,1.6l-62.59-109.14
		l-110.74-19.26c-194.21-35.3-219.87-104.33-85.07-229.51l83.45-77.04l-22.46-112.34c-19.26-102.72-17.65-118.77,6.41-154.08
		c36.91-57.78,91.48-52.96,216.67,14.45c129.99,70.63,150.87,59.39,123.58-60.99c-20.86-88.28-99.52-258.4-130.01-284.09
		c-12.84-11.24-9.64,25.69,8.03,112.34c16.05,69.02,24.08,129.99,19.25,134.82c-22.46,22.46-51.35,4.81-85.07-49.75
		c-19.25-33.7-60.99-96.29-91.48-138.03c-44.75-59.54-90.2-105.17-149.27-144.44c-65.8-38.51-110.74-54.58-110.74-36.91
		c21.25,67.33,39.56,138.8,54.58,207.05c25.69,115.57,28.89,215.06,11.24,227.91c-25.68,14.45-40.13-6.41-154.08-218.27
		c-105.93-199.02-192.6-290.5-298.52-319.39c-60.99-16.05-80.24-14.45-150.87,14.45c-44.94,19.26-89.88,33.7-101.12,33.7
		c-28.89,0-22.46-65.8,9.64-89.88c24.08-19.26,22.46-20.86-20.86-20.86c-123.58-1.6-248.77,105.93-248.77,211.86
		c0,94.69,25.68,134.82,211.86,330.63c144.44,149.27,203.83,227.91,293.71,378.78c86.67,147.66,146.06,226.3,256.8,338.65
		c147.66,149.27,226.3,202.22,388.4,263.21c190.98,72.23,391.62,83.45,585.81,33.7c322.6-83.45,540.87-274.45,696.56-608.29
		c94.69-203.83,199.02-356.3,300.14-438.16c197.41-160.49,268.02-251.97,268.02-345.08c0-64.2-56.18-142.84-141.23-195.81
		c-88.28-56.18-121.98-67.4-202.22-70.63C13885.04-4107.1,13886.66-4107.1,13872.21-4031.66z"/>
</g>
</svg>
